<svg width="44" height="45" viewBox="0 0 44 45" fill="none" xmlns="http://www.w3.org/2000/svg">
<path d="M0 22.5C0 12.1291 0 6.94365 3.22182 3.72182C6.44365 0.5 11.6291 0.5 22 0.5C32.3709 0.5 37.5563 0.5 40.7782 3.72182C44 6.94365 44 12.1291 44 22.5C44 32.8709 44 38.0563 40.7782 41.2782C37.5563 44.5 32.3709 44.5 22 44.5C11.6291 44.5 6.44365 44.5 3.22182 41.2782C0 38.0563 0 32.8709 0 22.5Z" fill="#FF9500"/>
<path d="M26.4002 29.1C27.0077 29.1 27.5113 29.5973 27.3906 30.1927C27.1773 31.2443 26.6592 32.219 25.8892 32.989C24.8578 34.0205 23.4589 34.6 22.0002 34.6C20.5414 34.6 19.1426 34.0205 18.1111 32.989C17.3411 32.219 16.823 31.2443 16.6098 30.1927C16.489 29.5973 16.9926 29.1 17.6002 29.1H26.4002Z" fill="#FFFBEA"/>
<path d="M28.7124 20.0542C28.1256 20.2113 27.7662 20.8253 28.0638 21.3549C28.3769 21.9124 28.8101 22.3989 29.3371 22.7765C30.1645 23.3694 31.1719 23.6572 32.1878 23.5905C33.2035 23.524 34.1648 23.1073 34.9077 22.4115C35.6508 21.7156 36.1294 20.7836 36.2623 19.7743C36.3952 18.7651 36.1741 17.741 35.6365 16.8765C35.0989 16.0121 34.2782 15.3608 33.3143 15.0335C32.3503 14.7063 31.3028 14.7234 30.3501 15.082C29.7433 15.3104 29.1991 15.6682 28.7522 16.1256C28.3278 16.5602 28.516 17.2463 29.0421 17.55L29.6001 17.8722C30.4488 18.3622 30.2815 19.6337 29.3348 19.8874L28.7124 20.0542Z" fill="#FFFBEA"/>
<path d="M15.2877 20.0542C15.8746 20.2113 16.2339 20.8253 15.9364 21.3549C15.6232 21.9124 15.19 22.3989 14.6631 22.7765C13.8357 23.3694 12.8282 23.6572 11.8125 23.5905C10.7966 23.524 9.83537 23.1073 9.0924 22.4115C8.34942 21.7156 7.87071 20.7836 7.73785 19.7743C7.60498 18.7651 7.82615 17.741 8.36371 16.8765C8.90126 16.0121 9.72193 15.3608 10.6859 15.0335C11.6498 14.7063 12.6974 14.7234 13.6501 15.082C14.2568 15.3104 14.8012 15.6682 15.248 16.1256C15.6725 16.5602 15.4842 17.2463 14.958 17.55L14.4 17.8722C13.5514 18.3622 13.7188 19.6337 14.6653 19.8874L15.2877 20.0542Z" fill="#FFFBEA"/>
</svg>
