<svg width="44" height="45" viewBox="0 0 44 45" fill="none" xmlns="http://www.w3.org/2000/svg">
<rect x="0.75" y="1.25" width="42.5" height="42.5" rx="5.25" stroke="#FF9500" stroke-width="1.5"/>
<path d="M22 23H22.0083" stroke="#FF9500" stroke-width="1.25" stroke-linecap="round" stroke-linejoin="round"/>
<path d="M25.3334 18.0001V16.3334C25.3334 15.8914 25.1578 15.4675 24.8453 15.1549C24.5327 14.8423 24.1088 14.6667 23.6667 14.6667H20.3334C19.8914 14.6667 19.4675 14.8423 19.1549 15.1549C18.8423 15.4675 18.6667 15.8914 18.6667 16.3334V18.0001" stroke="#FF9500" stroke-width="1.25" stroke-linecap="round" stroke-linejoin="round"/>
<path d="M30.3334 23.8333C27.8607 25.4657 24.963 26.336 22.0001 26.336C19.0371 26.336 16.1394 25.4657 13.6667 23.8333" stroke="#FF9500" stroke-width="1.25" stroke-linecap="round" stroke-linejoin="round"/>
<path d="M28.6667 18H15.3334C14.4129 18 13.6667 18.7462 13.6667 19.6667V28C13.6667 28.9205 14.4129 29.6667 15.3334 29.6667H28.6667C29.5872 29.6667 30.3334 28.9205 30.3334 28V19.6667C30.3334 18.7462 29.5872 18 28.6667 18Z" stroke="#FF9500" stroke-width="1.25" stroke-linecap="round" stroke-linejoin="round"/>
</svg>
